<mxfile host="app.diagrams.net" agent="Mozilla/5.0 (Windows NT 10.0; Win64; x64) AppleWebKit/537.36 (KHTML, like Gecko) Chrome/134.0.0.0 Safari/537.36" version="26.1.0">
  <diagram name="Page-1" id="_qj-sCbzipTfd1HCStGV">
    <mxGraphModel dx="1134" dy="600" grid="1" gridSize="10" guides="1" tooltips="1" connect="1" arrows="1" fold="1" page="1" pageScale="1" pageWidth="850" pageHeight="1100" math="0" shadow="0">
      <root>
        <mxCell id="0" />
        <mxCell id="1" parent="0" />
        <mxCell id="MPDoSXFL1MVOwzYvW1iI-3" value="Livro" style="swimlane;fontStyle=1;align=center;verticalAlign=top;childLayout=stackLayout;horizontal=1;startSize=26;horizontalStack=0;resizeParent=1;resizeParentMax=0;resizeLast=0;collapsible=1;marginBottom=0;whiteSpace=wrap;html=1;" vertex="1" parent="1">
          <mxGeometry x="660" y="70" width="160" height="130" as="geometry" />
        </mxCell>
        <mxCell id="MPDoSXFL1MVOwzYvW1iI-4" value="&lt;strong data-end=&quot;280&quot; data-start=&quot;268&quot;&gt;ID_Livro&lt;/strong&gt; (PK)" style="text;strokeColor=none;fillColor=none;align=left;verticalAlign=top;spacingLeft=4;spacingRight=4;overflow=hidden;rotatable=0;points=[[0,0.5],[1,0.5]];portConstraint=eastwest;whiteSpace=wrap;html=1;" vertex="1" parent="MPDoSXFL1MVOwzYvW1iI-3">
          <mxGeometry y="26" width="160" height="26" as="geometry" />
        </mxCell>
        <mxCell id="MPDoSXFL1MVOwzYvW1iI-18" value="Título" style="text;strokeColor=none;fillColor=none;align=left;verticalAlign=top;spacingLeft=4;spacingRight=4;overflow=hidden;rotatable=0;points=[[0,0.5],[1,0.5]];portConstraint=eastwest;whiteSpace=wrap;html=1;" vertex="1" parent="MPDoSXFL1MVOwzYvW1iI-3">
          <mxGeometry y="52" width="160" height="26" as="geometry" />
        </mxCell>
        <mxCell id="MPDoSXFL1MVOwzYvW1iI-36" value="Autor" style="text;strokeColor=none;fillColor=none;align=left;verticalAlign=top;spacingLeft=4;spacingRight=4;overflow=hidden;rotatable=0;points=[[0,0.5],[1,0.5]];portConstraint=eastwest;whiteSpace=wrap;html=1;" vertex="1" parent="MPDoSXFL1MVOwzYvW1iI-3">
          <mxGeometry y="78" width="160" height="26" as="geometry" />
        </mxCell>
        <mxCell id="MPDoSXFL1MVOwzYvW1iI-38" value="Ano de publicação" style="text;strokeColor=none;fillColor=none;align=left;verticalAlign=top;spacingLeft=4;spacingRight=4;overflow=hidden;rotatable=0;points=[[0,0.5],[1,0.5]];portConstraint=eastwest;whiteSpace=wrap;html=1;" vertex="1" parent="MPDoSXFL1MVOwzYvW1iI-3">
          <mxGeometry y="104" width="160" height="26" as="geometry" />
        </mxCell>
        <mxCell id="MPDoSXFL1MVOwzYvW1iI-19" value="Usuário" style="swimlane;fontStyle=1;align=center;verticalAlign=top;childLayout=stackLayout;horizontal=1;startSize=26;horizontalStack=0;resizeParent=1;resizeParentMax=0;resizeLast=0;collapsible=1;marginBottom=0;whiteSpace=wrap;html=1;" vertex="1" parent="1">
          <mxGeometry x="90" y="76" width="160" height="144" as="geometry" />
        </mxCell>
        <mxCell id="MPDoSXFL1MVOwzYvW1iI-20" value="&lt;strong data-end=&quot;377&quot; data-start=&quot;363&quot;&gt;ID_Usuário&lt;/strong&gt; (PK)" style="text;strokeColor=none;fillColor=none;align=left;verticalAlign=top;spacingLeft=4;spacingRight=4;overflow=hidden;rotatable=0;points=[[0,0.5],[1,0.5]];portConstraint=eastwest;whiteSpace=wrap;html=1;" vertex="1" parent="MPDoSXFL1MVOwzYvW1iI-19">
          <mxGeometry y="26" width="160" height="26" as="geometry" />
        </mxCell>
        <mxCell id="MPDoSXFL1MVOwzYvW1iI-22" value="Nome" style="text;strokeColor=none;fillColor=none;align=left;verticalAlign=top;spacingLeft=4;spacingRight=4;overflow=hidden;rotatable=0;points=[[0,0.5],[1,0.5]];portConstraint=eastwest;whiteSpace=wrap;html=1;" vertex="1" parent="MPDoSXFL1MVOwzYvW1iI-19">
          <mxGeometry y="52" width="160" height="26" as="geometry" />
        </mxCell>
        <mxCell id="MPDoSXFL1MVOwzYvW1iI-23" value="Email" style="text;strokeColor=none;fillColor=none;align=left;verticalAlign=top;spacingLeft=4;spacingRight=4;overflow=hidden;rotatable=0;points=[[0,0.5],[1,0.5]];portConstraint=eastwest;whiteSpace=wrap;html=1;" vertex="1" parent="MPDoSXFL1MVOwzYvW1iI-19">
          <mxGeometry y="78" width="160" height="26" as="geometry" />
        </mxCell>
        <mxCell id="MPDoSXFL1MVOwzYvW1iI-24" value="Tipo de Usuário (Aluno, Professor, etc.)" style="text;strokeColor=none;fillColor=none;align=left;verticalAlign=top;spacingLeft=4;spacingRight=4;overflow=hidden;rotatable=0;points=[[0,0.5],[1,0.5]];portConstraint=eastwest;whiteSpace=wrap;html=1;" vertex="1" parent="MPDoSXFL1MVOwzYvW1iI-19">
          <mxGeometry y="104" width="160" height="40" as="geometry" />
        </mxCell>
        <mxCell id="MPDoSXFL1MVOwzYvW1iI-27" value="Empréstimo" style="swimlane;fontStyle=1;align=center;verticalAlign=top;childLayout=stackLayout;horizontal=1;startSize=26;horizontalStack=0;resizeParent=1;resizeParentMax=0;resizeLast=0;collapsible=1;marginBottom=0;whiteSpace=wrap;html=1;" vertex="1" parent="1">
          <mxGeometry x="380" y="70" width="160" height="156" as="geometry" />
        </mxCell>
        <mxCell id="MPDoSXFL1MVOwzYvW1iI-28" value="&lt;strong data-end=&quot;501&quot; data-start=&quot;484&quot;&gt;ID_Empréstimo&lt;/strong&gt; (PK)" style="text;strokeColor=none;fillColor=none;align=left;verticalAlign=top;spacingLeft=4;spacingRight=4;overflow=hidden;rotatable=0;points=[[0,0.5],[1,0.5]];portConstraint=eastwest;whiteSpace=wrap;html=1;" vertex="1" parent="MPDoSXFL1MVOwzYvW1iI-27">
          <mxGeometry y="26" width="160" height="26" as="geometry" />
        </mxCell>
        <mxCell id="MPDoSXFL1MVOwzYvW1iI-30" value="&lt;strong data-end=&quot;526&quot; data-start=&quot;514&quot;&gt;ID_Livro&lt;/strong&gt; (FK)" style="text;strokeColor=none;fillColor=none;align=left;verticalAlign=top;spacingLeft=4;spacingRight=4;overflow=hidden;rotatable=0;points=[[0,0.5],[1,0.5]];portConstraint=eastwest;whiteSpace=wrap;html=1;" vertex="1" parent="MPDoSXFL1MVOwzYvW1iI-27">
          <mxGeometry y="52" width="160" height="26" as="geometry" />
        </mxCell>
        <mxCell id="MPDoSXFL1MVOwzYvW1iI-31" value="&lt;strong data-end=&quot;553&quot; data-start=&quot;539&quot;&gt;ID_Usuário&lt;/strong&gt; (FK)" style="text;strokeColor=none;fillColor=none;align=left;verticalAlign=top;spacingLeft=4;spacingRight=4;overflow=hidden;rotatable=0;points=[[0,0.5],[1,0.5]];portConstraint=eastwest;whiteSpace=wrap;html=1;" vertex="1" parent="MPDoSXFL1MVOwzYvW1iI-27">
          <mxGeometry y="78" width="160" height="26" as="geometry" />
        </mxCell>
        <mxCell id="MPDoSXFL1MVOwzYvW1iI-32" value="Data de Empréstimo" style="text;strokeColor=none;fillColor=none;align=left;verticalAlign=top;spacingLeft=4;spacingRight=4;overflow=hidden;rotatable=0;points=[[0,0.5],[1,0.5]];portConstraint=eastwest;whiteSpace=wrap;html=1;" vertex="1" parent="MPDoSXFL1MVOwzYvW1iI-27">
          <mxGeometry y="104" width="160" height="26" as="geometry" />
        </mxCell>
        <mxCell id="MPDoSXFL1MVOwzYvW1iI-33" value="Data de Devolução" style="text;strokeColor=none;fillColor=none;align=left;verticalAlign=top;spacingLeft=4;spacingRight=4;overflow=hidden;rotatable=0;points=[[0,0.5],[1,0.5]];portConstraint=eastwest;whiteSpace=wrap;html=1;" vertex="1" parent="MPDoSXFL1MVOwzYvW1iI-27">
          <mxGeometry y="130" width="160" height="26" as="geometry" />
        </mxCell>
        <mxCell id="MPDoSXFL1MVOwzYvW1iI-42" style="edgeStyle=orthogonalEdgeStyle;rounded=0;orthogonalLoop=1;jettySize=auto;html=1;entryX=0;entryY=0.5;entryDx=0;entryDy=0;" edge="1" parent="1" source="MPDoSXFL1MVOwzYvW1iI-20" target="MPDoSXFL1MVOwzYvW1iI-28">
          <mxGeometry relative="1" as="geometry" />
        </mxCell>
        <mxCell id="MPDoSXFL1MVOwzYvW1iI-43" value="1" style="edgeLabel;html=1;align=center;verticalAlign=middle;resizable=0;points=[];" vertex="1" connectable="0" parent="MPDoSXFL1MVOwzYvW1iI-42">
          <mxGeometry x="-0.8611" y="1" relative="1" as="geometry">
            <mxPoint y="-12" as="offset" />
          </mxGeometry>
        </mxCell>
        <mxCell id="MPDoSXFL1MVOwzYvW1iI-46" style="edgeStyle=orthogonalEdgeStyle;rounded=0;orthogonalLoop=1;jettySize=auto;html=1;entryX=1;entryY=0.5;entryDx=0;entryDy=0;" edge="1" parent="1" source="MPDoSXFL1MVOwzYvW1iI-4" target="MPDoSXFL1MVOwzYvW1iI-28">
          <mxGeometry relative="1" as="geometry" />
        </mxCell>
        <mxCell id="MPDoSXFL1MVOwzYvW1iI-47" value="1" style="edgeLabel;html=1;align=center;verticalAlign=middle;resizable=0;points=[];" vertex="1" connectable="0" parent="MPDoSXFL1MVOwzYvW1iI-46">
          <mxGeometry x="0.4944" y="-1" relative="1" as="geometry">
            <mxPoint x="80" y="-8" as="offset" />
          </mxGeometry>
        </mxCell>
        <mxCell id="MPDoSXFL1MVOwzYvW1iI-48" value="N" style="edgeLabel;html=1;align=center;verticalAlign=middle;resizable=0;points=[];" vertex="1" connectable="0" parent="1">
          <mxGeometry x="560.0033333333333" y="100" as="geometry">
            <mxPoint x="-1" as="offset" />
          </mxGeometry>
        </mxCell>
        <mxCell id="MPDoSXFL1MVOwzYvW1iI-49" value="N" style="edgeLabel;html=1;align=center;verticalAlign=middle;resizable=0;points=[];" vertex="1" connectable="0" parent="1">
          <mxGeometry x="360.0033333333334" y="90" as="geometry">
            <mxPoint x="1" y="7" as="offset" />
          </mxGeometry>
        </mxCell>
      </root>
    </mxGraphModel>
  </diagram>
</mxfile>
